<svg data-v-423bf9ae="" xmlns="http://www.w3.org/2000/svg" viewBox="0 0 520.0201859462856 186" class="iconAboveSlogan"><!----><!----><!----><g data-v-423bf9ae="" id="3a4e1a7b-018f-4d88-882d-8ad28f250bec" fill="white" transform="matrix(6.054490506946714,0,0,6.054490506946714,-2.7245170509274885,92.82845339838147)"><path d="M1.75 4.65C1.75 4.03 2.11 3.08 4.21 3.08C5.91 3.08 6.69 3.82 6.80 4.75L7.88 4.75C7.80 3.36 6.68 2.10 4.21 2.10C1.89 2.10 0.73 3.15 0.73 4.66C0.73 7.84 7.07 6.69 7.07 8.96C7.07 10.05 6.09 10.60 4.52 10.60C2.91 10.60 1.61 10.05 1.54 8.71L0.45 8.71C0.59 10.37 1.71 11.59 4.45 11.59C6.73 11.59 8.12 10.64 8.12 8.92C8.12 5.68 1.75 6.80 1.75 4.65ZM11.96 4.37C10.15 4.37 9.21 5.11 9.21 6.37C9.21 8.93 13.87 7.84 13.87 9.59C13.87 10.54 12.66 10.70 12.08 10.70C10.72 10.70 10.19 10.00 10.12 9.28L9.03 9.28C9.10 10.51 10.12 11.59 12.07 11.59C13.80 11.59 14.92 10.85 14.92 9.49C14.92 6.86 10.26 7.95 10.26 6.27C10.26 5.59 10.84 5.26 11.93 5.26C13.10 5.26 13.55 5.75 13.64 6.36L14.70 6.36C14.57 5.33 13.80 4.37 11.96 4.37ZM19.22 4.37C17.18 4.37 15.83 5.98 15.83 7.98C15.83 9.98 17.18 11.59 19.22 11.59C20.38 11.59 21.21 11.12 21.73 10.36L21.73 11.48L22.78 11.48L22.78 1.68L21.73 1.68L21.73 5.61C21.21 4.86 20.38 4.37 19.22 4.37ZM19.36 10.64C17.81 10.64 16.88 9.42 16.88 7.98C16.88 6.54 17.81 5.32 19.36 5.32C20.92 5.32 21.78 6.54 21.78 7.98C21.78 9.42 20.92 10.64 19.36 10.64ZM34.75 2.21L34.75 10.01L29.02 2.21L27.80 2.21L27.80 11.48L28.85 11.48L28.85 3.65L34.58 11.48L35.80 11.48L35.80 2.21ZM40.75 4.37C38.61 4.37 37.28 5.98 37.28 7.98C37.28 9.98 38.61 11.59 40.75 11.59C42.90 11.59 44.23 9.98 44.23 7.98C44.23 5.98 42.90 4.37 40.75 4.37ZM40.75 10.64C39.20 10.64 38.33 9.42 38.33 7.98C38.33 6.54 39.20 5.32 40.75 5.32C42.31 5.32 43.18 6.54 43.18 7.98C43.18 9.42 42.31 10.64 40.75 10.64ZM49.24 4.37C47.50 4.37 46.80 5.73 46.66 6.20L46.66 4.48L45.61 4.48L45.61 11.48L46.66 11.48L46.66 8.40C46.66 6.86 47.61 5.42 49.18 5.42L49.31 5.42L49.31 4.37ZM53.21 4.37C51.17 4.37 49.83 5.98 49.83 7.98C49.83 9.98 51.17 11.59 53.21 11.59C54.38 11.59 55.20 11.12 55.72 10.36L55.72 11.48L56.77 11.48L56.77 1.68L55.72 1.68L55.72 5.61C55.20 4.86 54.38 4.37 53.21 4.37ZM53.35 10.64C51.80 10.64 50.88 9.42 50.88 7.98C50.88 6.54 51.80 5.32 53.35 5.32C54.91 5.32 55.78 6.54 55.78 7.98C55.78 9.42 54.91 10.64 53.35 10.64ZM61.80 2.21L61.80 11.48L67.90 11.48L67.90 10.47L62.85 10.47L62.85 2.21ZM69.03 11.48L70.08 11.48L70.08 4.48L69.03 4.48ZM68.99 1.93L68.99 3.30L70.13 3.30L70.13 1.93ZM71.90 4.48L71.90 11.48L72.95 11.48L72.95 7.45C72.95 6.19 73.91 5.32 75.07 5.32C76.22 5.32 77.03 6.16 77.03 7.43L77.03 11.48L78.08 11.48L78.08 7.41C78.08 5.42 76.72 4.37 75.28 4.37C74.14 4.37 73.46 4.90 72.95 5.57L72.95 4.48ZM82.95 10.64C81.54 10.64 80.63 9.65 80.47 8.40L86.34 8.40L86.34 7.98C86.34 5.98 85.01 4.37 82.87 4.37C80.72 4.37 79.39 5.98 79.39 7.98C79.39 9.98 80.79 11.59 82.94 11.59C84.60 11.59 85.64 10.72 86.13 9.46L84.98 9.46C84.60 10.16 83.93 10.64 82.95 10.64ZM82.87 5.32C84.21 5.32 85.05 6.23 85.25 7.42L80.49 7.42C80.68 6.23 81.52 5.32 82.87 5.32Z"></path></g><!----><g data-v-423bf9ae="" id="c8e388f0-66e7-405c-bd8f-69b1efb3b711" transform="matrix(2.8125,0,0,2.8125,215.8300018310547,0)" stroke="none" fill="white"><path d="M2.83 18.247l26.34-9.124L2.83 0zM29.17 32V13.753L2.83 22.877z"></path></g><!----><g data-v-423bf9ae="" id="df13adf4-c64b-4253-806d-e6dd2d2831af" fill="white" transform="matrix(1.1293984149218894,0,0,1.1293984149218894,65.96655058677291,199.93397002544603)"><path d="M7.71 2.21L0.20 2.21L0.20 3.22L3.43 3.22L3.43 11.48L4.48 11.48L4.48 3.22L7.71 3.22ZM17.09 7.92L20.31 7.92L22.55 11.48L23.80 11.48L21.36 7.74C22.40 7.50 23.60 6.90 23.60 5.11C23.60 3.35 22.39 2.21 20.48 2.21L16.04 2.21L16.04 11.48L17.09 11.48ZM17.09 3.21L20.36 3.21C21.67 3.21 22.55 3.93 22.55 5.11C22.55 6.55 21.29 6.93 20.30 6.93L17.09 6.93ZM36.57 2.21L35.25 2.21L31.32 11.48L32.48 11.48L33.61 8.79L38.21 8.79L39.34 11.48L40.50 11.48ZM34.02 7.83L35.91 3.30L37.80 7.83ZM55.62 2.21L55.62 10.01L49.90 2.21L48.68 2.21L48.68 11.48L49.73 11.48L49.73 3.65L55.45 11.48L56.67 11.48L56.67 2.21ZM66.56 4.65C66.56 4.03 66.92 3.08 69.02 3.08C70.71 3.08 71.50 3.82 71.61 4.75L72.69 4.75C72.60 3.36 71.48 2.10 69.02 2.10C66.70 2.10 65.53 3.15 65.53 4.66C65.53 7.84 71.88 6.69 71.88 8.96C71.88 10.05 70.90 10.60 69.33 10.60C67.72 10.60 66.42 10.05 66.35 8.71L65.25 8.71C65.39 10.37 66.51 11.59 69.26 11.59C71.54 11.59 72.93 10.64 72.93 8.92C72.93 5.68 66.56 6.80 66.56 4.65ZM82.60 8.18L85.72 8.18C87.70 8.18 88.91 7.03 88.91 5.19C88.91 3.37 87.70 2.21 85.72 2.21L81.55 2.21L81.55 11.48L82.60 11.48ZM85.65 3.21C87.11 3.21 87.86 3.96 87.86 5.19C87.86 6.44 87.11 7.20 85.65 7.20L82.60 7.20L82.60 3.21ZM101.46 2.10C98.64 2.10 96.75 4.21 96.75 6.85C96.75 9.48 98.64 11.59 101.46 11.59C104.27 11.59 106.16 9.48 106.16 6.85C106.16 4.21 104.27 2.10 101.46 2.10ZM101.46 10.57C99.20 10.57 97.80 8.93 97.80 6.85C97.80 4.76 99.20 3.12 101.46 3.12C103.71 3.12 105.11 4.76 105.11 6.85C105.11 8.93 103.71 10.57 101.46 10.57ZM115.89 7.92L119.11 7.92L121.35 11.48L122.60 11.48L120.16 7.74C121.20 7.50 122.40 6.90 122.40 5.11C122.40 3.35 121.18 2.21 119.28 2.21L114.84 2.21L114.84 11.48L115.89 11.48ZM115.89 3.21L119.15 3.21C120.47 3.21 121.35 3.93 121.35 5.11C121.35 6.55 120.09 6.93 119.10 6.93L115.89 6.93ZM137.79 2.21L130.27 2.21L130.27 3.22L133.50 3.22L133.50 11.48L134.55 11.48L134.55 3.22L137.79 3.22ZM157.15 2.21L156.10 2.21L156.10 11.48L157.15 11.48ZM173.36 2.21L173.36 10.01L167.64 2.21L166.42 2.21L166.42 11.48L167.47 11.48L167.47 3.65L173.19 11.48L174.41 11.48L174.41 2.21ZM190.26 2.21L182.74 2.21L182.74 3.22L185.98 3.22L185.98 11.48L187.03 11.48L187.03 3.22L190.26 3.22ZM205.41 3.22L205.41 2.21L198.59 2.21L198.59 11.48L205.41 11.48L205.41 10.47L199.64 10.47L199.64 7.35L204.79 7.35L204.79 6.33L199.64 6.33L199.64 3.22ZM215.15 7.92L218.37 7.92L220.61 11.48L221.86 11.48L219.42 7.74C220.46 7.50 221.66 6.90 221.66 5.11C221.66 3.35 220.44 2.21 218.54 2.21L214.10 2.21L214.10 11.48L215.15 11.48ZM215.15 3.21L218.41 3.21C219.73 3.21 220.61 3.93 220.61 5.11C220.61 6.55 219.35 6.93 218.36 6.93L215.15 6.93ZM237.41 2.21L237.41 10.01L231.69 2.21L230.47 2.21L230.47 11.48L231.52 11.48L231.52 3.65L237.24 11.48L238.46 11.48L238.46 2.21ZM251.89 2.21L250.57 2.21L246.64 11.48L247.80 11.48L248.93 8.79L253.53 8.79L254.66 11.48L255.82 11.48ZM249.34 7.83L251.23 3.30L253.12 7.83ZM269.75 2.21L262.23 2.21L262.23 3.22L265.47 3.22L265.47 11.48L266.52 11.48L266.52 3.22L269.75 3.22ZM279.13 2.21L278.08 2.21L278.08 11.48L279.13 11.48ZM292.52 2.10C289.70 2.10 287.81 4.21 287.81 6.85C287.81 9.48 289.70 11.59 292.52 11.59C295.33 11.59 297.22 9.48 297.22 6.85C297.22 4.21 295.33 2.10 292.52 2.10ZM292.52 10.57C290.26 10.57 288.86 8.93 288.86 6.85C288.86 4.76 290.26 3.12 292.52 3.12C294.77 3.12 296.17 4.76 296.17 6.85C296.17 8.93 294.77 10.57 292.52 10.57ZM312.84 2.21L312.84 10.01L307.12 2.21L305.90 2.21L305.90 11.48L306.95 11.48L306.95 3.65L312.68 11.48L313.89 11.48L313.89 2.21ZM327.32 2.21L326.00 2.21L322.07 11.48L323.23 11.48L324.37 8.79L328.96 8.79L330.09 11.48L331.25 11.48ZM324.77 7.83L326.66 3.30L328.55 7.83ZM339.43 2.21L339.43 11.48L345.53 11.48L345.53 10.47L340.48 10.47L340.48 2.21Z"></path></g></svg>