<svg data-v-fde0c5aa="" xmlns="http://www.w3.org/2000/svg" viewBox="0 0 300 300" class="font"><!----><defs data-v-fde0c5aa=""><!----></defs><rect data-v-fde0c5aa="" fill="#004A66" x="0" y="0" width="300px" height="300px" class="logo-background-square"></rect><defs data-v-fde0c5aa=""><!----></defs><g data-v-fde0c5aa="" id="b4e972fc-7db5-4438-a5cf-735dd41ab674" fill="#0EA7FF" transform="matrix(2.5614157825516837,0,0,2.5614157825516837,38.847362852050075,133.00500630719716)"><path d="M1.75 4.65C1.75 4.03 2.11 3.08 4.21 3.08C5.91 3.08 6.69 3.82 6.80 4.75L7.88 4.75C7.80 3.36 6.68 2.10 4.21 2.10C1.89 2.10 0.73 3.15 0.73 4.66C0.73 7.84 7.07 6.69 7.07 8.96C7.07 10.05 6.09 10.60 4.52 10.60C2.91 10.60 1.61 10.05 1.54 8.71L0.45 8.71C0.59 10.37 1.71 11.59 4.45 11.59C6.73 11.59 8.12 10.64 8.12 8.92C8.12 5.68 1.75 6.80 1.75 4.65ZM11.96 4.37C10.15 4.37 9.21 5.11 9.21 6.37C9.21 8.93 13.87 7.84 13.87 9.59C13.87 10.54 12.66 10.70 12.08 10.70C10.72 10.70 10.19 10.00 10.12 9.28L9.03 9.28C9.10 10.51 10.12 11.59 12.07 11.59C13.80 11.59 14.92 10.85 14.92 9.49C14.92 6.86 10.26 7.95 10.26 6.27C10.26 5.59 10.84 5.26 11.93 5.26C13.10 5.26 13.55 5.75 13.64 6.36L14.70 6.36C14.57 5.33 13.80 4.37 11.96 4.37ZM19.22 4.37C17.18 4.37 15.83 5.98 15.83 7.98C15.83 9.98 17.18 11.59 19.22 11.59C20.38 11.59 21.21 11.12 21.73 10.36L21.73 11.48L22.78 11.48L22.78 1.68L21.73 1.68L21.73 5.61C21.21 4.86 20.38 4.37 19.22 4.37ZM19.36 10.64C17.81 10.64 16.88 9.42 16.88 7.98C16.88 6.54 17.81 5.32 19.36 5.32C20.92 5.32 21.78 6.54 21.78 7.98C21.78 9.42 20.92 10.64 19.36 10.64ZM34.75 2.21L34.75 10.01L29.02 2.21L27.80 2.21L27.80 11.48L28.85 11.48L28.85 3.65L34.58 11.48L35.80 11.48L35.80 2.21ZM40.75 4.37C38.61 4.37 37.28 5.98 37.28 7.98C37.28 9.98 38.61 11.59 40.75 11.59C42.90 11.59 44.23 9.98 44.23 7.98C44.23 5.98 42.90 4.37 40.75 4.37ZM40.75 10.64C39.20 10.64 38.33 9.42 38.33 7.98C38.33 6.54 39.20 5.32 40.75 5.32C42.31 5.32 43.18 6.54 43.18 7.98C43.18 9.42 42.31 10.64 40.75 10.64ZM49.24 4.37C47.50 4.37 46.80 5.73 46.66 6.20L46.66 4.48L45.61 4.48L45.61 11.48L46.66 11.48L46.66 8.40C46.66 6.86 47.61 5.42 49.18 5.42L49.31 5.42L49.31 4.37ZM53.21 4.37C51.17 4.37 49.83 5.98 49.83 7.98C49.83 9.98 51.17 11.59 53.21 11.59C54.38 11.59 55.20 11.12 55.72 10.36L55.72 11.48L56.77 11.48L56.77 1.68L55.72 1.68L55.72 5.61C55.20 4.86 54.38 4.37 53.21 4.37ZM53.35 10.64C51.80 10.64 50.88 9.42 50.88 7.98C50.88 6.54 51.80 5.32 53.35 5.32C54.91 5.32 55.78 6.54 55.78 7.98C55.78 9.42 54.91 10.64 53.35 10.64ZM61.80 2.21L61.80 11.48L67.90 11.48L67.90 10.47L62.85 10.47L62.85 2.21ZM69.03 11.48L70.08 11.48L70.08 4.48L69.03 4.48ZM68.99 1.93L68.99 3.30L70.13 3.30L70.13 1.93ZM71.90 4.48L71.90 11.48L72.95 11.48L72.95 7.45C72.95 6.19 73.91 5.32 75.07 5.32C76.22 5.32 77.03 6.16 77.03 7.43L77.03 11.48L78.08 11.48L78.08 7.41C78.08 5.42 76.72 4.37 75.28 4.37C74.14 4.37 73.46 4.90 72.95 5.57L72.95 4.48ZM82.95 10.64C81.54 10.64 80.63 9.65 80.47 8.40L86.34 8.40L86.34 7.98C86.34 5.98 85.01 4.37 82.87 4.37C80.72 4.37 79.39 5.98 79.39 7.98C79.39 9.98 80.79 11.59 82.94 11.59C84.60 11.59 85.64 10.72 86.13 9.46L84.98 9.46C84.60 10.16 83.93 10.64 82.95 10.64ZM82.87 5.32C84.21 5.32 85.05 6.23 85.25 7.42L80.49 7.42C80.68 6.23 81.52 5.32 82.87 5.32Z"></path></g><!----><!----></svg>