<svg id="Layer_1" data-name="Layer 1" xmlns="http://www.w3.org/2000/svg" viewBox="0 0 1877.1 657.64"><defs><style>.cls-1{fill:#fff;}.cls-2{fill:#0ea7ff;}</style></defs><title>icon</title><g id="Layer_1-2" data-name="Layer 1-2"><g id="fcb0a0ba-a46c-444b-a726-afcb0e6a679d"><path class="cls-1" d="M62.33,513.47c0-10.93,7.87-27.64,53.78-27.64,37.18,0,54.23,13,56.63,29.39h23.62c-1.75-24.47-26.25-46.65-80.25-46.65-50.72,0-76.1,18.47-76.1,45,0,56,138.63,35.74,138.63,75.71,0,19.19-21.42,28.88-55.76,28.88-35.2,0-63.61-9.69-65.23-33.29H33.9c3.05,29.24,27.55,50.72,87.45,50.72,49.86,0,80.25-16.73,80.25-47C201.6,531.6,62.33,551.33,62.33,513.47ZM285.41,507c-39.81,0-60.51,13.09-60.51,35.43,0,45.34,102.53,26,102.53,57,0,16.82-26.61,19.66-39.39,19.66-29.91,0-41.57-12.4-43.12-25.15H221c1.55,21.79,24,40.94,66.89,40.94,38.06,0,62.69-13.12,62.69-37.23,0-46.58-102.53-27.28-102.53-57,0-12.06,12.78-17.88,36.76-17.88,25.73,0,35.63,8.68,37.6,19.48h23.33C342.83,524,325.9,507,285.41,507Zm159.31,1.82c-43.7,0-72.62,28.45-72.62,63.79s28.92,63.79,72.62,63.79c24.75,0,42.63-8.3,53.76-21.73v19.8H521V461.24H498.48V530.7C487.35,517.47,469.58,508.79,444.72,508.79ZM447,618.38c-33.85,0-54.16-21.46-54.16-46.79s20.25-46.81,54.16-46.81,52.88,21.46,52.88,46.81-18.71,46.79-52.79,46.79ZM784.14,470.24V608.39L661.44,470.24H631.19v164.2h22.49V495.75L776.45,634.44h30.18V470.24Zm130.21,37.83c-46.76,0-75.8,28.32-75.8,63.52s29,63.5,75.8,63.5,76-28.32,76-63.5S961.31,508.07,914.35,508.07Zm0,110.22c-33.87,0-52.86-21.46-52.86-46.79s19-46.81,52.86-46.81,53.08,21.46,53.08,46.81-19,46.88-53.08,46.88Zm185.41-109.81c-38.4,0-53.85,23.3-57,31.35v-29.1h-22.5V634.44h22.5V577.53c0-26.38,21-51.06,55.62-51.06h2.86v-18Zm87.22.31c-43.7,0-72.4,28.45-72.4,63.79s28.7,63.79,72.4,63.79c25.06,0,42.74-8.3,53.76-21.73v19.8h22.49V461.24h-22.49V530.7C1229.61,517.47,1212,508.79,1187,508.79Zm2.61,109.59c-33.74,0-54-21.46-54-46.79s20.11-46.81,54-46.81,53.08,21.46,53.08,46.81S1223.76,618.38,1189.59,618.38Zm183.86-148.14v162h132.7v-18H1395.94v-144Zm159.7,164.2h22.49V510.73h-22.49Zm-2.25-168.7v24.74h24.74V465.74Zm65.22,45V634.44h20.25v-70.9c0-22.16,21.19-37.47,46.76-37.47s43.21,14.77,43.21,37.11v71.26l24.74-2.25v-71.6c0-35-29.8-53.49-61.38-53.49-25,0-39.88,9.34-51.08,21.13v-17.5Zm243.44,105.51c-29.71,0-48.9-16.83-52.27-38H1911v-7.13c0-33.94-28-61.29-73.15-61.29s-73.34,27.35-73.34,61.29,29.51,61.3,74.83,61.3c35,0,56.9-14.78,67.25-36.17h-24.22c-8,11.87-22.07,20-42.81,20Zm-5.08-90.71c29.24,0,47.62,16,52,36.93h-104c4.14-20.94,22.49-36.93,52-36.93Z" transform="translate(-33.9 -101.36)"/></g><path class="cls-2" d="M806.63,253.59l272.91-76.12L806.63,101.36ZM1078.79,368.3V216.07L805.91,292.23Z" transform="translate(-33.9 -101.36)"/><g id="c2338db2-533e-4683-a961-f343798acca5"><path class="cls-1" d="M347.78,728.9H316.29v2.25h13.5v27h4.5v-27h13.49Zm38.24,18h13.81l9.58,11.25h4.86L404,745.44c4.38-.81,9.44-2.86,9.44-9s-5.1-9.85-13.15-9.85H381.52v31.49H386Zm0-15.75h12.26c4.92,0,8.23,2.25,8.23,5.74,0,4.36-4.75,5.51-8.46,5.51H386Zm79.17-4.49h-5.55l-16.58,31.49h5.11l4.7-9H472l4.7,9h5.11ZM454.71,746.9,462.43,732l7.69,14.87Zm88.76-20.24v26.49L519,726.66h-4.74v31.49h4.5V731.54l24.51,26.61H548V726.66Zm43.45,8.66c0-2.12,1.53-5.36,10.42-5.36,7.15,0,10.48,2.52,10.95,5.69h4.5c-.38-4.74-5.11-9-15.52-9-9.83,0-14.78,3.59-14.78,8.72,0,10.84,26.88,6.93,26.88,14.67,0,3.71-4.16,5.58-10.8,5.58s-12.3-1.87-12.61-6.44h-4.59c.61,5.67,5.35,9.81,17,9.81,9.65,0,15.52-3.24,15.52-9C613.87,738.82,586.92,742.65,586.92,735.32Zm66.76,11.58h13.07c8.34,0,13.5-3.89,13.5-10.15s-5.09-10.09-13.5-10.09H649.18v31.49h4.5Zm12.82-15.75c6.14,0,9.29,2.55,9.29,6.75s-3.15,6.75-9.29,6.75H653.68v-13.5Zm63-3.64c-11.47,0-19.18,6.91-19.18,15.59s7.71,15.54,19.18,15.54,19.17-6.93,19.17-15.54-7.65-15.59-19.12-15.59Zm0,27.78c-9.2,0-14.91-5.38-14.91-12.19s5.71-12.26,14.91-12.26,14.89,5.4,14.89,12.26-5.67,12.19-14.84,12.19Zm59.16-8.39h13.81L812,758.15h4.86l-10.3-12.71c4.5-.81,9.44-2.86,9.44-9s-5.15-9.85-13.15-9.85H784.14v31.49h4.5Zm0-15.75H800.9c4.94,0,8.25,2.25,8.25,5.74,0,4.36-4.74,5.51-8.46,5.51H788.64Zm90-2.25H847.12v2.25h13.49v27h4.5v-27h13.5Zm78.72-2.24h-4.5v31.49h4.5Zm65.23,0v26.49l-24.49-26.49h-4.75v31.49h4.5V731.54l24.52,26.61h4.72V726.66Zm69.73,2.24H1060.8v2.25h13.49v27h4.5v-27h13.5Zm60.73,2.25v-4.49h-27v31.49h27V755.9h-22.49V744.65h20.24V742.4h-20.24V731.15Zm40.49,15.75h13.81l9.58,11.25h4.86l-10.3-12.71c4.49-.81,9.44-2.86,9.44-9s-5.15-9.85-13.16-9.85H1189v31.49h4.5Zm0-15.75h12.25c5,0,8.26,2.25,8.26,5.74,0,4.36-4.75,5.51-8.46,5.51h-12Zm90-4.49v26.49L1259,726.66h-4.74v31.49h4.49V731.54l24.52,26.61H1288V726.66Zm59.15,0h-5.55l-16.6,31.49h5.1l4.7-9h19.1l4.7,9h5.11Zm-10.48,20.24,7.72-14.87,7.6,14.87Zm84-18h-31.49v2.25h13.5v27h4.5v-27h13.49Zm38.24-2.24h-4.5v31.49h4.5Zm53.69.85c-11.49,0-19.19,6.91-19.19,15.59s7.7,15.54,19.19,15.54,19.16-6.93,19.16-15.54S1519.56,727.51,1508.11,727.51Zm0,27.78c-9.2,0-14.91-5.38-14.91-12.19s5.71-12.26,14.91-12.26,14.89,5.4,14.89,12.26S1517.29,755.29,1508.11,755.29Zm83.52-28.63v26.49l-24.5-26.49h-4.74v31.49h4.49V731.54l24.57,26.61h4.67V726.66Zm58.48,0h-5.74l-16.58,31.49h5.11l4.75-9h19l4.7,9h5.1Zm-10.48,20.24,7.69-14.87,7.62,14.87Zm60-18v29.25h24.74V755.9h-20.24v-27Z" transform="translate(-33.9 -101.36)"/></g></g></svg>